<?xml version="1.0" standalone="no"?><!DOCTYPE svg PUBLIC "-//W3C//DTD SVG 1.1//EN" "http://www.w3.org/Graphics/SVG/1.1/DTD/svg11.dtd"><svg class="icon" width="81px" height="81.00px" viewBox="0 0 1024 1024" version="1.1" xmlns="http://www.w3.org/2000/svg"><path d="M484.522667 77.192533l-307.2 134.997334A68.266667 68.266667 0 0 0 136.533333 274.653867V486.229333c0 129.5872 57.9584 245.384533 160.085334 325.188267l176.0256 124.2112a68.266667 68.266667 0 0 0 78.711466 0l174.6944-123.221333C829.508267 731.5968 887.466667 615.799467 887.466667 486.229333V274.670933a68.266667 68.266667 0 0 0-40.789334-62.498133l-307.2-134.997333a68.266667 68.266667 0 0 0-54.954666 0zM204.8 274.670933l307.2-134.997333 307.2 134.997333V486.229333c0 108.305067-48.0768 204.373333-133.853867 271.394134L512 879.837867l-174.6944-123.221334C252.8768 690.551467 204.8 594.500267 204.8 486.1952V274.670933z" fill="#444444" /><path d="M682.666667 358.4l48.264533 48.264533-221.866667 221.866667a34.133333 34.133333 0 0 1-48.264533 0l-136.533333-136.533333L372.5312 443.733333l112.401067 112.384L682.666667 358.4z" fill="#00B386" /></svg>